<svg width="72" height="70" viewBox="0 0 72 70" xmlns="http://www.w3.org/2000/svg">
<path d="M62.1299 9.97132C62.1299 9.36313 62.0102 8.76088 61.7775 8.19897C61.5448 7.63706 61.2036 7.12649 60.7736 6.69642C60.3436 6.26634 59.833 5.92519 59.2711 5.69244C58.7092 5.45968 58.107 5.33989 57.4988 5.33989H51.037V2.27539C51.037 1.71595 50.8148 1.17942 50.4192 0.783837C50.0236 0.388252 49.4871 0.166016 48.9276 0.166016C48.3682 0.166016 47.8317 0.388252 47.4361 0.783837C47.0405 1.17942 46.8183 1.71595 46.8183 2.27539V5.33989H16.1556V2.27539C16.1556 1.71595 15.9334 1.17942 15.5378 0.783837C15.1422 0.388252 14.6057 0.166016 14.0462 0.166016C13.4868 0.166016 12.9503 0.388252 12.5547 0.783837C12.1591 1.17942 11.9368 1.71595 11.9368 2.27539V5.33989H5.47483C4.86664 5.33989 4.2644 5.45968 3.70251 5.69244C3.14061 5.92519 2.63007 6.26634 2.20003 6.69642C1.76999 7.12649 1.42887 7.63706 1.19616 8.19897C0.963448 8.76088 0.843699 9.36313 0.84375 9.97132V12.5493H62.1299V9.97132Z" fill="#FFC59E"/>
<path d="M52.3656 32.2529C48.6492 32.253 45.0162 33.355 41.9262 35.4198C38.8361 37.4846 36.4277 40.4193 35.0055 43.8528C33.5833 47.2863 33.2112 51.0645 33.9363 54.7095C34.6613 58.3545 36.451 61.7027 39.0789 64.3305C41.7068 66.9584 45.055 68.748 48.7 69.4731C52.345 70.1981 56.1232 69.8259 59.5567 68.4037C62.9902 66.9815 65.9249 64.573 67.9896 61.4829C70.0543 58.3928 71.1564 54.7598 71.1564 51.0434C71.1564 48.5758 70.6703 46.1323 69.726 43.8525C68.7817 41.5728 67.3976 39.5013 65.6527 37.7564C63.9078 36.0116 61.8363 34.6275 59.5565 33.6832C57.2767 32.7389 54.8332 32.2529 52.3656 32.2529ZM63.5332 53.7693C63.5332 53.929 63.5018 54.0871 63.4407 54.2346C63.3796 54.3821 63.2901 54.5161 63.1772 54.629C63.0643 54.7419 62.9303 54.8314 62.7828 54.8925C62.6353 54.9536 62.4772 54.9851 62.3175 54.985H56.3073V60.9952C56.3072 61.3176 56.1791 61.6268 55.9511 61.8548C55.7232 62.0828 55.414 62.2109 55.0916 62.2109H49.64C49.3176 62.2109 49.0083 62.0828 48.7804 61.8549C48.5524 61.6269 48.4243 61.3177 48.4243 60.9952V54.985H42.4141C42.2544 54.9851 42.0963 54.9536 41.9488 54.8925C41.8013 54.8314 41.6673 54.7419 41.5544 54.629C41.4415 54.5161 41.3519 54.3821 41.2909 54.2346C41.2298 54.0871 41.1983 53.929 41.1984 53.7693V48.3177C41.1983 48.158 41.2298 48 41.2909 47.8524C41.3519 47.7049 41.4415 47.5709 41.5544 47.458C41.6673 47.3451 41.8013 47.2556 41.9488 47.1945C42.0963 47.1334 42.2544 47.102 42.4141 47.102H48.4243V41.0918C48.4243 40.9321 48.4557 40.774 48.5168 40.6265C48.5779 40.479 48.6675 40.345 48.7803 40.2321C48.8932 40.1192 49.0273 40.0297 49.1748 39.9686C49.3223 39.9075 49.4804 39.8761 49.64 39.8761H55.0917C55.4141 39.8761 55.7233 40.0042 55.9513 40.2322C56.1793 40.4602 56.3073 40.7694 56.3074 41.0918V47.102H62.3176C62.4772 47.102 62.6353 47.1334 62.7828 47.1945C62.9303 47.2556 63.0644 47.3451 63.1772 47.458C63.2901 47.5709 63.3797 47.7049 63.4408 47.8524C63.5019 48 63.5333 48.158 63.5333 48.3177L63.5332 53.7693Z" fill="#FFC59E"/>
<path d="M21.2179 52.8645V46.1909H29.894C30.6591 42.6319 32.26 39.306 34.5644 36.4879V34.1791H36.7669C39.881 31.2818 43.7394 29.3075 47.911 28.4768V22.1673H55.919V28.3389C58.0695 28.6732 60.1611 29.3137 62.1301 30.2408V16.7686H0.84375V54.3346C0.843722 54.9428 0.963493 55.545 1.19622 56.107C1.42895 56.6689 1.77009 57.1794 2.20014 57.6095C2.6302 58.0396 3.14075 58.3807 3.70266 58.6135C4.26456 58.8462 4.86681 58.966 5.47501 58.966H30.7914C30.0671 57.0027 29.6128 54.9501 29.4412 52.8645H21.2179ZM34.5644 22.1673H42.5725V28.8405H34.5644V22.1673ZM21.2179 22.1673H29.2257V28.8405H21.2179V22.1673ZM21.2179 34.1791H29.2257V40.8523H21.2179V34.1791ZM15.8794 52.8645H7.87148V46.1909H15.8795L15.8794 52.8645ZM15.8794 40.8523H7.87148V34.1791H15.8795L15.8794 40.8523Z" fill="#FFC59E"/>
</svg>
