<svg width="323" height="90" viewBox="0 0 323 90" fill="none" xmlns="http://www.w3.org/2000/svg">
<path d="M293.432 69.88C293.052 69.38 292.192 68.5 290.592 68.5C288.472 68.5 286.552 69.98 286.552 72.84C286.552 75.76 288.492 77.24 290.592 77.24C292.052 77.24 292.952 76.46 293.432 75.84V77H294.872V68.7H293.432V69.88ZM290.752 69.78C292.032 69.78 293.512 70.72 293.512 72.86C293.512 74.5 292.512 75.96 290.752 75.96C289.032 75.96 288.032 74.62 288.032 72.84C288.032 70.82 289.332 69.78 290.752 69.78Z" fill="white"/>
<path d="M278.634 68.6992V76.9992H280.074V73.7792L280.514 73.3592L283.754 76.9992H285.634L281.594 72.3992L285.194 68.6992H283.434L280.074 72.0992V68.6992H278.634Z" fill="white"/>
<path d="M268.79 68.6996V77.5796L274.47 71.4596V76.9996H275.91V68.0596L270.23 74.1796V68.6996H268.79Z" fill="white"/>
<path d="M259.278 76.9992H260.718V73.4192H264.638V76.9992H266.078V68.6992H264.638V72.0992H260.718V68.6992H259.278V76.9992Z" fill="white"/>
<path d="M249.435 68.6996V77.5796L255.115 71.4596V76.9996H256.555V68.0596L250.875 74.1796V68.6996H249.435Z" fill="white"/>
<path d="M246.71 68.6992H240.87V73.7592C240.87 74.2592 240.85 74.7792 240.59 75.1792C240.43 75.4392 240.09 75.7192 239.55 75.7192C239.45 75.7192 239.33 75.6992 239.23 75.6792V76.9992C239.37 77.0192 239.53 77.0392 239.67 77.0392C240.79 77.0392 241.41 76.4792 241.67 76.1592C242.31 75.3792 242.31 74.4592 242.31 73.7592V70.0192H245.27V76.9992H246.71V68.6992Z" fill="white"/>
<path d="M231.778 68.6992V76.9992H233.218V73.7792L233.658 73.3592L236.898 76.9992H238.778L234.738 72.3992L238.338 68.6992H236.578L233.218 72.0992V68.6992H231.778Z" fill="white"/>
<path d="M217.986 76.9992H219.706L222.066 73.6592H222.946V76.9992H224.386V68.6992H221.486C220.666 68.6992 219.766 68.7192 219.046 69.3992C218.586 69.8192 218.306 70.4792 218.306 71.2592C218.306 72.0392 218.626 72.5992 218.966 72.9192C219.566 73.4992 220.466 73.5792 220.566 73.5792L217.986 76.9992ZM222.946 72.4592H221.586C221.246 72.4592 220.726 72.4792 220.306 72.2192C219.946 71.9992 219.786 71.6592 219.786 71.2192C219.786 70.6792 220.066 70.3592 220.306 70.1992C220.606 70.0192 221.026 69.9792 221.606 69.9792H222.946V72.4592Z" fill="white"/>
<path d="M214.779 69.88C214.399 69.38 213.539 68.5 211.939 68.5C209.819 68.5 207.899 69.98 207.899 72.84C207.899 75.76 209.839 77.24 211.939 77.24C213.399 77.24 214.299 76.46 214.779 75.84V77H216.219V68.7H214.779V69.88ZM212.099 69.78C213.379 69.78 214.859 70.72 214.859 72.86C214.859 74.5 213.859 75.96 212.099 75.96C210.379 75.96 209.379 74.62 209.379 72.84C209.379 70.82 210.679 69.78 212.099 69.78Z" fill="white"/>
<path d="M198.907 76.9992H200.347V73.4192H204.267V76.9992H205.707V68.6992H204.267V72.0992H200.347V68.6992H198.907V76.9992Z" fill="white"/>
<path d="M189.82 75.84C190.44 76.64 191.38 77.24 192.72 77.24C195.24 77.24 196.7 75.18 196.7 72.9C196.7 70.66 195.26 68.5 192.66 68.5C192.06 68.5 190.8 68.64 189.82 69.86V68.7H188.38V81.6H189.82V75.84ZM192.52 75.96C190.82 75.96 189.74 74.58 189.74 72.88C189.74 70.88 191.16 69.78 192.5 69.78C193.84 69.78 195.22 70.86 195.22 72.9C195.22 74.56 194.2 75.96 192.52 75.96Z" fill="white"/>
<path d="M184.213 69.88C183.833 69.38 182.973 68.5 181.373 68.5C179.253 68.5 177.333 69.98 177.333 72.84C177.333 75.76 179.273 77.24 181.373 77.24C182.833 77.24 183.733 76.46 184.213 75.84V77H185.653V68.7H184.213V69.88ZM181.533 69.78C182.813 69.78 184.293 70.72 184.293 72.86C184.293 74.5 183.293 75.96 181.533 75.96C179.813 75.96 178.813 74.62 178.813 72.84C178.813 70.82 180.113 69.78 181.533 69.78Z" fill="white"/>
<path d="M168.341 76.9992H169.781V73.4192H173.701V76.9992H175.141V68.6992H173.701V72.0992H169.781V68.6992H168.341V76.9992Z" fill="white"/>
<path d="M158.497 68.6996V77.5796L164.177 71.4596V76.9996H165.617V68.0596L159.937 74.1796V68.6996H158.497Z" fill="white"/>
<path d="M149.41 75.84C150.03 76.64 150.97 77.24 152.31 77.24C154.83 77.24 156.29 75.18 156.29 72.9C156.29 70.66 154.85 68.5 152.25 68.5C151.65 68.5 150.39 68.64 149.41 69.86V68.7H147.97V81.6H149.41V75.84ZM152.11 75.96C150.41 75.96 149.33 74.58 149.33 72.88C149.33 70.88 150.75 69.78 152.09 69.78C153.43 69.78 154.81 70.86 154.81 72.9C154.81 74.56 153.79 75.96 152.11 75.96Z" fill="white"/>
<path d="M144.501 74.22C144.321 74.62 144.021 75.04 143.641 75.36C143.161 75.76 142.621 75.96 141.941 75.96C140.501 75.96 139.321 74.86 139.301 73.14H145.761C145.801 72.04 145.501 70.76 144.981 70.02C144.481 69.3 143.461 68.5 141.841 68.5C139.341 68.5 137.821 70.42 137.821 72.9C137.821 75.98 139.921 77.24 141.921 77.24C142.981 77.24 143.921 76.9 144.681 76.22C145.101 75.84 145.461 75.34 145.701 74.88L144.501 74.22ZM139.401 71.94C139.621 70.7 140.621 69.78 141.841 69.78C143.061 69.78 144.041 70.64 144.281 71.94H139.401Z" fill="white"/>
<path d="M137.023 70.0192V68.6992H130.383V70.0192H132.983V76.9992H134.423V70.0192H137.023Z" fill="white"/>
<path d="M128.115 74.22C127.935 74.62 127.635 75.04 127.255 75.36C126.775 75.76 126.235 75.96 125.555 75.96C124.115 75.96 122.935 74.86 122.915 73.14H129.375C129.415 72.04 129.115 70.76 128.595 70.02C128.095 69.3 127.075 68.5 125.455 68.5C122.955 68.5 121.435 70.42 121.435 72.9C121.435 75.98 123.535 77.24 125.535 77.24C126.595 77.24 127.535 76.9 128.295 76.22C128.715 75.84 129.075 75.34 129.315 74.88L128.115 74.22ZM123.015 71.94C123.235 70.7 124.235 69.78 125.455 69.78C126.675 69.78 127.655 70.64 127.895 71.94H123.015Z" fill="white"/>
<path d="M113.36 68.6992V76.9992H116.94C117.6 76.9992 118.4 76.8192 118.9 76.4392C119.36 76.0792 119.76 75.4392 119.76 74.5592C119.76 73.9192 119.56 73.3992 119.1 72.9592C118.7 72.5792 118.3 72.4592 118.06 72.3992C118.56 72.0792 118.96 71.5592 118.96 70.7392C118.96 69.8992 118.54 69.4192 118.24 69.1792C117.66 68.7192 116.94 68.6992 116.5 68.6992H113.36ZM114.8 72.0792V69.9792H116.08C116.52 69.9792 116.9 69.9592 117.24 70.1792C117.46 70.3392 117.64 70.5792 117.64 70.9792C117.64 71.4792 117.4 71.7192 117.24 71.8392C116.92 72.0592 116.46 72.0792 116.32 72.0792H114.8ZM114.8 75.7192V73.2792H116.64C117.04 73.2792 117.58 73.2992 117.94 73.5792C118.22 73.7992 118.36 74.1392 118.36 74.5192C118.36 74.8992 118.14 75.2392 117.88 75.4392C117.52 75.6992 116.98 75.7192 116.58 75.7192H114.8Z" fill="white"/>
<path d="M299.977 22.1973H322.328V31.2549H320.326C320.318 30.1725 320.045 29.1064 319.508 28.0566C318.971 27.0068 318.303 26.1483 317.506 25.481C316.708 24.8055 315.947 24.4637 315.223 24.4556H314.967C314.763 24.4556 314.637 24.48 314.588 24.5288C314.548 24.5776 314.527 24.7363 314.527 25.0049V41.2036C314.527 42.2046 315.093 42.7051 316.224 42.7051H318.019V45H304.273V42.7051H306.068C307.207 42.7051 307.777 42.2046 307.777 41.2036V25.0049C307.777 24.6387 307.643 24.4556 307.374 24.4556H307.069C306.353 24.5044 305.596 24.8584 304.798 25.5176C304.001 26.1768 303.333 27.0272 302.796 28.0688C302.259 29.1105 301.987 30.1725 301.979 31.2549H299.977V22.1973Z" fill="white"/>
<path d="M269.117 22.1973H281.568V24.5044H281.068C279.937 24.5044 279.371 25.0049 279.371 26.0059V37.395H279.518L286.622 25.7007V25.5542C286.622 24.8543 286.052 24.5044 284.913 24.5044H284.413V22.1973H296.864V24.5044H295.069C293.938 24.5044 293.373 25.0049 293.373 26.0059V41.2036C293.373 42.2046 293.938 42.7051 295.069 42.7051H296.864V45H284.413V42.7051H284.913C286.052 42.7051 286.622 42.2046 286.622 41.2036V30.0952H286.512L279.371 41.0449V41.2036C279.371 42.2046 279.937 42.7051 281.068 42.7051H281.568V45H269.117V42.7051H270.912C272.051 42.7051 272.621 42.2046 272.621 41.2036V26.0059C272.621 25.0049 272.051 24.5044 270.912 24.5044H269.117V22.1973Z" fill="white"/>
<path d="M243.288 22.1973H266.139V24.5044H264.345C263.205 24.5044 262.636 25.0049 262.636 26.0059V41.2036C262.636 42.2046 263.205 42.7051 264.345 42.7051H266.139V45H252.394V42.7051H254.188C255.32 42.7051 255.885 42.2046 255.885 41.2036V27.3486C255.885 26.0791 255.714 25.2694 255.373 24.9194C255.031 24.5695 254.355 24.3945 253.346 24.3945C252.508 24.3945 251.881 24.5247 251.466 24.7852C251.059 25.0456 250.754 25.5868 250.551 26.4087C250.355 27.2225 250.233 28.488 250.185 30.2051C249.989 35.2995 249.692 38.6971 249.293 40.3979C248.455 44.0356 246.689 45.8545 243.996 45.8545C242.71 45.8545 241.656 45.6185 240.834 45.1465C240.02 44.6826 239.434 44.1007 239.076 43.4009C238.718 42.6929 238.539 41.9767 238.539 41.2524C238.539 40.0887 238.869 39.1406 239.528 38.4082C240.187 37.6676 241.009 37.2974 241.994 37.2974C242.742 37.2974 243.418 37.5415 244.02 38.0298C244.63 38.5181 244.936 39.2261 244.936 40.1538C244.936 40.3817 244.87 40.6991 244.74 41.106C244.626 41.4152 244.476 41.6634 244.289 41.8506C244.093 42.2412 243.996 42.526 243.996 42.7051C243.996 42.9004 244.211 42.998 244.643 42.998C245.741 42.998 246.522 42.05 246.986 40.1538C247.336 38.7297 247.572 36.8335 247.694 34.4653C247.825 32.089 247.89 30.1522 247.89 28.6548C247.89 27.312 247.715 26.2866 247.365 25.5786C247.015 24.8625 246.221 24.5044 244.984 24.5044H243.288V22.1973Z" fill="white"/>
<path d="M212.037 33.5981C212.037 31.3276 212.574 29.2565 213.648 27.3848C214.723 25.5049 216.167 24.0319 217.982 22.9658C219.797 21.8916 221.766 21.3545 223.89 21.3545C225.314 21.3545 226.73 21.623 228.138 22.1602C229.554 22.6973 230.836 23.4907 231.983 24.5405C233.131 25.5903 234.042 26.8883 234.718 28.4346C235.401 29.9727 235.743 31.6938 235.743 33.5981C235.743 36.1128 235.161 38.3019 233.998 40.1655C232.842 42.0291 231.353 43.4451 229.53 44.4136C227.707 45.3739 225.827 45.854 223.89 45.854C222.303 45.854 220.79 45.5488 219.349 44.9385C217.917 44.32 216.647 43.4533 215.541 42.3384C214.434 41.2153 213.571 39.9051 212.953 38.4077C212.342 36.9022 212.037 35.299 212.037 33.5981ZM219.337 33.5981C219.337 35.5675 219.443 37.2684 219.654 38.7007C219.874 40.1248 220.318 41.2804 220.985 42.1675C221.66 43.0545 222.629 43.498 223.89 43.498C225.811 43.498 227.048 42.5581 227.601 40.6782C228.163 38.7902 228.443 36.4302 228.443 33.5981C228.443 30.7091 228.15 28.3369 227.564 26.4814C226.979 24.626 225.754 23.6982 223.89 23.6982C222.637 23.6982 221.673 24.1499 220.997 25.0532C220.322 25.9565 219.874 27.1284 219.654 28.5688C219.443 30.0011 219.337 31.6776 219.337 33.5981Z" fill="white"/>
<path d="M206.935 10.3438H208.18C207.927 13.5094 207.04 15.5277 205.519 16.3984C203.997 17.2611 202.186 17.7127 200.086 17.7534C197.45 17.8022 195.362 17.9894 193.824 18.3149C192.294 18.6323 190.988 19.4136 189.906 20.6587C188.823 21.9038 188.148 23.8162 187.879 26.396H188.185C188.453 26.0298 188.669 25.7124 188.832 25.4438C189.71 24.1662 190.85 23.1652 192.25 22.4409C193.657 21.7166 195.204 21.3545 196.888 21.3545C198.915 21.3545 200.831 21.8306 202.638 22.7827C204.444 23.7267 205.893 25.1021 206.983 26.9087C208.082 28.7153 208.631 30.8271 208.631 33.2441C208.591 35.653 208.078 37.8136 207.093 39.7261C206.109 41.6385 204.721 43.14 202.931 44.2305C201.148 45.3128 199.102 45.854 196.791 45.854C195.073 45.854 193.336 45.4634 191.578 44.6821C189.828 43.8927 188.323 42.4523 187.062 40.3608C185.808 38.2612 185.182 35.4251 185.182 31.8525C185.182 27.3848 185.768 23.8162 186.939 21.147C188.119 18.4777 189.609 16.5612 191.407 15.3975C193.206 14.2256 194.894 13.5094 196.473 13.249C198.06 12.9886 200.062 12.8055 202.479 12.6997C203.342 12.659 203.968 12.598 204.359 12.5166C204.75 12.4271 205.136 12.2277 205.519 11.9185C205.909 11.6092 206.381 11.0843 206.935 10.3438ZM196.986 43.498C198.296 43.4085 199.264 42.965 199.891 42.1675C200.526 41.37 200.925 40.3853 201.087 39.2134C201.25 38.0415 201.332 36.5034 201.332 34.5991V33.4028C201.332 30.6359 201.201 28.6828 200.941 27.5435C200.64 26.2251 200.127 25.2567 199.403 24.6382C198.687 24.0116 197.914 23.6982 197.083 23.6982C195.252 23.6982 194.028 24.4551 193.409 25.9688C192.791 27.4743 192.481 29.4193 192.481 31.8037V34.7944C192.481 36.5848 192.579 38.0903 192.774 39.311C192.97 40.5317 193.397 41.5368 194.056 42.3262C194.723 43.1074 195.7 43.498 196.986 43.498Z" fill="white"/>
<path d="M154.029 22.1963H166.48V24.5034H165.98C164.849 24.5034 164.283 25.0039 164.283 26.0049V37.394H164.43L171.534 25.6997V25.5532C171.534 24.8534 170.965 24.5034 169.825 24.5034H169.325V22.1963H181.776V24.5034H179.981C178.85 24.5034 178.285 25.0039 178.285 26.0049V41.2026C178.285 42.2036 178.85 42.7041 179.981 42.7041H181.776V44.999H169.325V42.7041H169.825C170.965 42.7041 171.534 42.2036 171.534 41.2026V30.0942H171.424L164.283 41.0439V41.2026C164.283 42.2036 164.849 42.7041 165.98 42.7041H166.48V44.999H154.029V42.7041H155.824C156.963 42.7041 157.533 42.2036 157.533 41.2026V26.0049C157.533 25.0039 156.963 24.5034 155.824 24.5034H154.029V22.1963ZM167.884 18.5464C165.85 18.5464 164.047 18.0947 162.477 17.1914C160.914 16.2799 160.133 15.0511 160.133 13.5049C160.133 12.569 160.385 11.8366 160.89 11.3076C161.402 10.7705 162.131 10.502 163.075 10.502C163.872 10.502 164.487 10.742 164.918 11.2222C165.357 11.6942 165.577 12.2679 165.577 12.9434C165.577 13.4235 165.443 13.8752 165.174 14.2983C165.117 14.396 165.016 14.5343 164.869 14.7134C164.723 14.8843 164.605 15.043 164.515 15.1895C164.426 15.3278 164.381 15.4661 164.381 15.6045C164.381 15.8893 164.625 16.1864 165.113 16.4956C165.602 16.7967 166.525 16.9473 167.884 16.9473C170.212 16.9473 171.375 16.4997 171.375 15.6045C171.375 15.4336 171.335 15.283 171.253 15.1528C171.18 15.0145 171.083 14.8802 170.96 14.75C170.847 14.6117 170.72 14.4611 170.582 14.2983C170.346 13.9728 170.228 13.5212 170.228 12.9434C170.228 11.9587 170.663 11.2262 171.534 10.7461C172.022 10.5833 172.47 10.502 172.877 10.502C173.699 10.502 174.362 10.7705 174.867 11.3076C175.371 11.8447 175.624 12.5771 175.624 13.5049C175.624 14.6117 175.233 15.5475 174.452 16.3125C173.67 17.0693 172.678 17.6309 171.473 17.9971C170.269 18.3633 169.072 18.5464 167.884 18.5464Z" fill="white"/>
<path d="M113.404 44.9995V42.6436C115.024 42.6436 116.244 42.2244 117.066 41.3862C117.888 40.5399 118.568 39.429 119.105 38.0537C119.284 37.6794 119.414 37.3945 119.496 37.1992C119.707 36.7272 119.874 36.3285 119.996 36.0029L130.604 10.002H133.656L145.545 37.7974C146.253 39.4006 147.059 40.609 147.962 41.4229C148.874 42.2367 150.005 42.6436 151.356 42.6436V44.9995H133.656V42.6436H136.146C136.683 42.6436 137.143 42.5296 137.525 42.3018C137.908 42.0739 138.099 41.7402 138.099 41.3008C138.099 40.9102 137.916 40.2917 137.55 39.4453L136 35.9053H122.853L121.9 38.4443C121.632 39.2012 121.498 39.8197 121.498 40.2998C121.498 41.8623 122.682 42.6436 125.05 42.6436H126.502V44.9995H113.404ZM123.854 33.5493H134.95L129.298 20.4023H129.249L123.854 33.5493Z" fill="white"/>
<path fill-rule="evenodd" clip-rule="evenodd" d="M45 0C20.1472 0 0 20.1472 0 45C0 69.8528 20.1472 90 45 90C69.8528 90 90 69.8528 90 45C90 20.1472 69.8528 0 45 0ZM13.7923 55.034C14.4142 54.8578 14.0405 53.9923 13.0809 54.5228C12.4168 54.89 11.9212 55.5189 12.0104 56.2871C12.3075 58.8468 14.463 58.8502 16.3281 58.8531C16.4685 58.8533 16.6073 58.8535 16.7436 58.8548C16.6981 59.0838 16.682 59.378 16.6648 59.6931C16.636 60.2172 16.6042 60.799 16.4289 61.2339C16.1146 62.0141 15.5748 62.4095 15.3336 62.5862C15.303 62.6086 15.2772 62.6275 15.2573 62.6432C15.1189 62.7523 14.7973 63.7565 14.6212 64.3064C14.572 64.4601 14.5341 64.5782 14.5148 64.6315C14.4263 64.8757 14.6647 65.978 14.794 66.1593C14.9235 66.3408 15.5161 66.4106 15.5978 66.3339C15.6659 66.2699 15.6725 66.2592 15.6295 66.1726L15.5978 66.1105C15.5229 65.964 15.4479 65.8036 15.4071 65.5245C15.3662 65.2455 15.6114 64.3106 15.6864 64.1083C15.7305 63.9892 16.1735 63.8362 16.6528 63.6707C16.9877 63.5551 17.3402 63.4334 17.5868 63.3128C17.9073 63.1562 18.2161 62.9517 18.4362 62.806C18.6277 62.6792 18.7521 62.5968 18.7584 62.6293C18.7721 62.699 18.7175 63.8292 18.6766 64.0804C18.6358 64.3314 19.0854 64.75 19.5213 65.1268C19.7217 65.3 19.8329 65.482 19.9263 65.635C20.036 65.8147 20.1212 65.9542 20.2979 65.992C20.6248 66.0616 21.1016 65.992 21.2924 65.95C21.3664 65.9338 21.426 65.9533 21.4776 65.9702C21.5591 65.9968 21.6206 66.0169 21.6873 65.8802C21.7963 65.657 21.6057 65.4757 21.4422 65.364C21.389 65.3277 21.3099 65.287 21.2203 65.2408C21.0344 65.1452 20.8035 65.0263 20.6656 64.8757C20.6409 64.8487 20.614 64.8198 20.5859 64.7897C20.3816 64.5706 20.1137 64.2834 20.1616 64.1362C20.1812 64.076 20.2606 63.9708 20.3594 63.8399C20.5354 63.6067 20.773 63.292 20.8428 63.006C20.9517 62.5595 21.0063 62.2525 21.0063 62.2525C21.0063 62.2525 21.7568 62.3082 22.4107 62.4756C23.0647 62.6431 24.318 62.6291 24.318 62.6291C24.318 62.6291 24.1272 62.9639 23.9911 63.2151C23.9803 63.2349 23.9684 63.2566 23.9556 63.2798C23.8061 63.5507 23.5397 64.0336 23.6777 64.3034C23.8275 64.5965 24.4815 65.7823 24.8356 65.922C25.096 66.0246 25.3196 65.9989 25.501 65.9782C25.5663 65.9707 25.6262 65.9638 25.6803 65.9638C25.8846 65.9638 26.0073 65.908 25.8982 65.7127C25.8075 65.5499 25.6978 65.5034 25.5927 65.4682L25.5304 65.4475C25.5106 65.4408 25.4904 65.4347 25.4701 65.4286C25.3648 65.3971 25.2561 65.3646 25.1762 65.2243C25.0808 65.0568 24.9991 64.6243 24.9991 64.3593C24.9991 64.1766 25.3287 63.8219 25.6318 63.4957C25.7688 63.3483 25.9003 63.2067 25.9936 63.0894C26.2933 62.7128 26.3887 62.4896 26.3887 62.4896C26.3887 62.4896 26.4841 63.2987 26.5931 63.5918C26.7021 63.8848 27.4105 64.4709 27.8601 64.7918C28.1359 64.9886 28.2681 65.2117 28.3606 65.3676C28.4189 65.4659 28.4614 65.5375 28.514 65.5591C28.6502 65.615 29.0863 65.7057 29.2632 65.6499C29.4404 65.5941 29.5834 65.4825 29.42 65.3011C29.3125 65.1818 29.1756 65.0927 29.0576 65.0159C28.9961 64.9759 28.9398 64.9392 28.8955 64.9034C28.766 64.7987 27.9146 63.5709 27.8329 63.0407C27.7512 62.5104 27.7239 62.1896 27.7921 61.8686C27.8601 61.5477 27.9146 61.464 27.9146 61.464L27.9574 61.4217C28.0788 61.302 28.4274 60.9616 28.589 60.836C28.7866 60.6825 29.8356 60.515 30.0603 60.6476C30.106 60.6745 30.1444 60.7009 30.1789 60.7246C30.3144 60.8177 30.391 60.8704 30.619 60.7593C30.8545 60.6443 31.0624 60.4182 31.1665 60.305C31.1888 60.2807 31.2063 60.2617 31.2183 60.25C31.2569 60.2125 31.2703 60.2051 31.2852 60.197C31.2966 60.1907 31.3089 60.184 31.3342 60.1627C31.392 60.1138 31.4023 60.1034 31.3886 60.0442C31.3843 60.0253 31.3454 59.9528 31.2929 59.8551C31.18 59.6448 31.0044 59.3177 30.9765 59.1582C30.9642 59.0878 30.9606 59.0396 30.9576 59.0011C30.9509 58.9117 30.9481 58.875 30.8505 58.7361C30.7674 58.6177 30.5358 58.4177 30.3648 58.2701C30.2486 58.1698 30.1603 58.0936 30.1658 58.0837L30.1679 58.08C30.1898 58.0411 30.3192 57.812 30.3192 57.7313C30.3192 57.6477 29.7912 57.7873 29.7912 57.7873C29.7912 57.7873 29.8797 57.6687 29.8593 57.5012C29.8389 57.3338 29.7981 57.2396 29.7707 57.2361C29.7435 57.2326 29.3723 57.4942 29.2599 57.6268C29.1474 57.7594 29.0998 57.8116 29.0829 57.8151C29.0811 57.8155 29.07 57.8195 29.0507 57.8265C28.8783 57.8892 28.0572 58.1878 27.5363 58.1815C27.0767 58.176 26.3937 58.0693 25.8453 57.9836C25.703 57.9614 25.5699 57.9406 25.452 57.9233C25.2992 57.901 25.0342 57.8433 24.7021 57.771C23.7903 57.5727 22.3728 57.2643 21.3842 57.2746C20.0355 57.2885 18.7258 57.3422 18.5919 57.4011C17.9201 57.5701 15.2108 57.9264 14.2239 57.6665C12.8487 57.3042 12.4173 55.4235 13.7923 55.034ZM67.2473 60.8769L49.9648 19H41.0851L26.1626 55.3689C26.221 55.3296 26.2839 55.2863 26.3567 55.2361C26.392 55.2117 26.4297 55.1858 26.4703 55.1579C26.5884 55.0768 26.8003 54.9391 27.0496 54.7771C27.6784 54.3684 28.5453 53.805 28.7455 53.6051C29.0251 53.3259 29.5721 52.3821 29.7912 51.6304C30.0104 50.8788 30.5718 49.8354 30.7379 49.5586L30.7555 49.5293C30.9187 49.2578 31.1163 48.9289 31.1254 48.7179C31.1313 48.5802 31.2308 48.3715 31.3462 48.1295C31.4142 47.9869 31.4877 47.8327 31.5508 47.6748C31.6353 47.463 31.697 47.1802 31.7475 46.9481C31.7987 46.7132 31.8386 46.5302 31.8795 46.5252C31.961 46.5155 32.1724 46.9756 32.2812 47.2468C32.3899 47.518 32.6511 48.1048 32.695 48.1932C32.7351 48.2743 32.91 48.319 33.0616 48.3579C33.0754 48.3614 33.0891 48.3649 33.1024 48.3684C33.1794 48.3884 33.3229 48.4609 33.4799 48.5402C33.6476 48.6249 33.8306 48.7173 33.9646 48.762C34.2242 48.8487 34.288 48.9079 34.4025 49.0215C34.4535 49.0719 34.4961 49.1357 34.5417 49.204C34.5988 49.2895 34.6607 49.3821 34.7497 49.4651C34.9098 49.6144 35.3044 49.6969 35.6301 49.7619C35.8028 49.7963 36.0162 49.8782 36.2225 49.9573C36.4055 50.0275 36.5829 50.0955 36.7211 50.1263C37.015 50.1917 36.981 50.289 36.9226 50.4447C36.8642 50.6006 36.6879 50.8842 36.547 51.046C36.5134 51.0847 36.4843 51.1239 36.4546 51.164C36.3599 51.2917 36.2594 51.4273 35.9882 51.5762C35.6789 51.7462 35.4226 51.7536 35.1843 51.7605C35.1483 51.7615 35.1127 51.7626 35.0774 51.7641C34.9759 51.7687 34.862 51.7863 34.7424 51.8047C34.545 51.8352 34.3322 51.868 34.1349 51.8485C33.9119 51.8265 33.7844 51.8424 33.6516 51.859C33.5957 51.866 33.539 51.8731 33.4737 51.8775C33.3095 51.8887 33.2822 51.9287 33.2457 51.9821C33.2333 52.0003 33.2197 52.0202 33.1993 52.0409C33.119 52.1225 32.9464 52.5575 32.9079 53.1987C32.8956 53.4038 32.8754 53.6461 32.8548 53.8933C32.8111 54.4186 32.7655 54.9657 32.7899 55.2246C32.8135 55.4738 32.9265 55.8172 33.0595 56.2213C33.1299 56.435 33.2058 56.6657 33.2771 56.9084C33.4332 57.44 33.4069 57.8852 33.3865 58.2313C33.38 58.3421 33.374 58.4427 33.3749 58.5328C33.378 58.8771 33.2066 59.3366 33.0733 59.694C33.0628 59.7223 33.0525 59.7499 33.0425 59.7768C33.0213 59.8341 32.948 60.023 32.8395 60.3028C32.4101 61.4099 31.429 63.9395 30.9349 65.3661L39.7614 65.3636V63.9345C36.2164 63.8016 34.4437 62.6494 34.4437 60.478C34.4437 59.7246 34.5989 58.9492 34.9091 58.1515L37.302 52.0361H52.8895L56.0802 59.7136C56.2573 60.1345 56.346 60.5888 56.346 61.0763C56.346 62.8488 54.3297 63.8016 50.2971 63.9345V65.3636H72V63.9345H71.734C69.5848 63.9345 68.0893 62.9152 67.2473 60.8769ZM38.3323 49.3773L44.8465 32.5601L51.7928 49.3773H38.3323Z" fill="white"/>
</svg>
